<svg width="36" height="46" viewBox="0 0 36 46" fill="none" xmlns="http://www.w3.org/2000/svg">
<path d="M17.1073 40.7702C17.2574 40.9089 17.4543 40.9859 17.6587 40.9859C17.863 40.9859 18.0599 40.9089 18.2101 40.7702C23.4027 35.7838 33.9453 24.2271 33.8702 17.0687C33.8702 12.7691 32.1622 8.64569 29.1219 5.60544C26.0817 2.5652 21.9582 0.857208 17.6587 0.857208C13.3591 0.857208 9.23566 2.5652 6.19542 5.60544C3.15517 8.64569 1.44718 12.7691 1.44718 17.0687C1.36487 24.2151 11.9195 35.7974 17.1073 40.7702ZM10.752 17.0687C11.1196 7.91332 24.1994 7.91652 24.5654 17.0687C24.5654 18.9005 23.8377 20.6572 22.5424 21.9525C21.2472 23.2477 19.4904 23.9754 17.6587 23.9754C15.8269 23.9754 14.0702 23.2477 12.7749 21.9525C11.4797 20.6572 10.752 18.9005 10.752 17.0687ZM35.3165 40.1869C35.2558 47.414 0.0607321 47.414 0 40.1869C0 37.597 4.5645 36.0379 9.72913 35.2947C10.0919 35.7342 10.6121 36.2968 10.9997 36.7331C4.59646 37.5003 1.59901 39.1632 1.59901 40.1869C1.59901 41.7531 7.85842 44.0242 17.6587 44.0242C27.4589 44.0242 33.7183 41.7539 33.7183 40.1869C33.7183 39.164 30.7209 37.5011 24.3176 36.7331L24.877 36.1098C25.1167 35.8381 25.3565 35.5664 25.5882 35.2947C30.7528 36.0379 35.3165 37.5962 35.3165 40.1869Z" fill="url(#paint0_linear_10_13)"/>
<defs>
<linearGradient id="paint0_linear_10_13" x1="0" y1="23.2322" x2="35.3173" y2="23.2322" gradientUnits="userSpaceOnUse">
<stop stop-color="#00C0FF"/>
<stop offset="1" stop-color="#5558FF"/>
</linearGradient>
</defs>
</svg>
